<svg width="24" height="26" viewBox="0 0 24 26" fill="none" xmlns="http://www.w3.org/2000/svg">
<path d="M4.24383 25.75C3.65355 25.75 3.15182 25.5434 2.73862 25.1302C2.32543 24.717 2.11883 24.2153 2.11883 23.625V3.4375H0.666748V1.3125H7.32508V0.25H16.6751V1.3125H23.3334V3.4375H21.8813V23.625C21.8813 24.1917 21.6688 24.6875 21.2438 25.1125C20.8188 25.5375 20.323 25.75 19.7563 25.75H4.24383ZM19.7563 3.4375H4.24383V23.625H19.7563V3.4375ZM7.998 20.5792H10.123V6.44792H7.998V20.5792ZM13.8772 20.5792H16.0022V6.44792H13.8772V20.5792ZM4.24383 3.4375V23.625V3.4375Z" fill="#FF5630"/>
</svg>
