<svg width="28" height="28" viewBox="0 0 28 28" fill="none" xmlns="http://www.w3.org/2000/svg">
<path d="M2.75 25.25H4.4L21.0125 8.63745L19.3625 6.98745L2.75 23.6V25.25ZM25.775 7.02495L20.975 2.22495L22.55 0.649951C22.975 0.224951 23.5 0.0124512 24.125 0.0124512C24.75 0.0124512 25.275 0.224951 25.7 0.649951L27.35 2.29995C27.775 2.72495 27.9875 3.24995 27.9875 3.87495C27.9875 4.49995 27.775 5.02495 27.35 5.44995L25.775 7.02495ZM24.2 8.59995L5.3 27.5H0.5V22.6999L19.4 3.79995L24.2 8.59995ZM20.1875 7.81245L19.3625 6.98745L21.0125 8.63745L20.1875 7.81245Z" fill="#FFAB00"/>
</svg>
