<svg width="34" height="23" viewBox="0 0 34 23" fill="none" xmlns="http://www.w3.org/2000/svg">
<path d="M16.9999 17.9688C18.7256 17.9688 20.19 17.3672 21.3931 16.1641C22.5963 14.961 23.1978 13.4966 23.1978 11.7709C23.1978 10.0452 22.5963 8.58077 21.3931 7.37765C20.19 6.17452 18.7256 5.57296 16.9999 5.57296C15.2742 5.57296 13.8098 6.17452 12.6067 7.37765C11.4036 8.58077 10.802 10.0452 10.802 11.7709C10.802 13.4966 11.4036 14.961 12.6067 16.1641C13.8098 17.3672 15.2742 17.9688 16.9999 17.9688ZM16.9999 15.8542C15.8576 15.8542 14.8914 15.4592 14.1015 14.6693C13.3115 13.8794 12.9166 12.9132 12.9166 11.7709C12.9166 10.6285 13.3115 9.66237 14.1015 8.87244C14.8914 8.08251 15.8576 7.68754 16.9999 7.68754C18.1423 7.68754 19.1084 8.08251 19.8984 8.87244C20.6883 9.66237 21.0833 10.6285 21.0833 11.7709C21.0833 12.9132 20.6883 13.8794 19.8984 14.6693C19.1084 15.4592 18.1423 15.8542 16.9999 15.8542ZM16.9999 22.7084C13.4513 22.7084 10.243 21.6997 7.37492 19.6823C4.50686 17.665 2.36797 15.0278 0.958252 11.7709C2.36797 8.51393 4.50686 5.87678 7.37492 3.85942C10.243 1.84205 13.4513 0.833374 16.9999 0.833374C20.5485 0.833374 23.7569 1.84205 26.6249 3.85942C29.493 5.87678 31.6319 8.51393 33.0416 11.7709C31.6319 15.0278 29.493 17.665 26.6249 19.6823C23.7569 21.6997 20.5485 22.7084 16.9999 22.7084ZM16.9999 20.5209C19.9409 20.5209 22.6449 19.7249 25.1119 18.1329C27.5789 16.5408 29.4565 14.4202 30.7447 11.7709C29.4565 9.12157 27.5789 7.00091 25.1119 5.40889C22.6449 3.81688 19.9409 3.02087 16.9999 3.02087C14.0589 3.02087 11.355 3.81688 8.88794 5.40889C6.42093 7.00091 4.53117 9.12157 3.21867 11.7709C4.53117 14.4202 6.42093 16.5408 8.88794 18.1329C11.355 19.7249 14.0589 20.5209 16.9999 20.5209Z" fill="#0000FF"/>
</svg>
